<svg version="1.1" id="Layer_1" xmlns="http://www.w3.org/2000/svg" xmlns:xlink="http://www.w3.org/1999/xlink" x="0px" y="0px"
	 width="100%" viewBox="0 0 567 566" enable-background="new 0 0 567 566" xml:space="preserve">
<path fill="#000000" opacity="1.000000" stroke="none" 
	d="
M309.000000,567.000000 
	C206.022598,567.000000 103.545197,567.000000 1.033898,567.000000 
	C1.033898,378.397522 1.033898,189.795059 1.033898,1.096294 
	C189.894073,1.096294 378.788239,1.096294 567.841187,1.096294 
	C567.841187,189.666565 567.841187,378.333252 567.841187,567.000000 
	C481.795013,567.000000 395.647491,567.000000 309.000000,567.000000 
M170.842392,358.270294 
	C169.891113,357.340240 168.963333,356.384644 167.984833,355.484161 
	C160.864212,348.931152 153.759399,349.018280 146.899048,353.762665 
	C141.185287,357.714081 139.895340,365.433319 144.045105,372.763092 
	C147.112350,378.180786 150.863846,383.270996 154.785828,388.122864 
	C157.218018,391.131714 160.060715,393.608398 158.730042,398.520630 
	C161.332520,396.707855 163.840759,394.795959 164.775620,392.295746 
	C165.893646,389.305664 165.679611,385.813965 166.018723,382.537109 
	C166.426743,378.594269 169.628769,375.958679 172.756912,377.473541 
	C178.909317,380.453003 182.083633,385.842224 182.909561,392.422882 
	C183.697968,398.704437 180.858459,403.753448 175.201736,406.147736 
	C170.444809,408.161255 165.104034,409.737244 160.000458,409.800873 
	C148.043213,409.950043 136.784424,406.299133 126.699379,399.995422 
	C119.044167,395.210510 113.110123,388.562561 109.991585,378.915985 
	C123.720818,380.719238 133.862198,388.522858 145.391342,396.654114 
	C137.293533,374.268677 129.716888,353.323944 121.818001,331.488403 
	C115.480072,339.523193 109.292168,346.188629 99.289978,347.607056 
	C100.814659,338.470245 106.283508,331.167450 114.439751,322.183197 
	C116.201530,320.242523 116.940575,318.701050 115.975517,316.159912 
	C109.177979,298.260925 102.327423,280.379211 95.829521,262.370819 
	C93.436134,255.737732 89.861435,248.594681 90.438156,242.000198 
	C92.227478,221.540375 103.169479,211.449600 124.648491,217.155991 
	C156.997437,225.750244 188.763779,236.537399 220.778046,246.391556 
	C222.616516,246.957428 224.457306,247.515717 227.001129,248.292557 
	C227.001129,235.883743 226.771286,224.239258 227.113831,212.611633 
	C227.251526,207.937210 225.614761,205.896698 221.245834,204.523026 
	C200.142838,197.888000 179.138779,190.938583 158.094391,184.116837 
	C139.966644,178.240555 121.564117,174.900742 102.431755,177.927841 
	C79.915184,181.490402 60.538982,199.643219 54.835445,221.556320 
	C50.714458,237.389221 54.503819,252.176941 60.048023,266.500275 
	C66.244049,282.507599 73.895058,297.950653 80.852173,313.666138 
	C81.528679,315.194305 81.778694,316.911285 82.411369,319.212372 
	C73.548286,319.212372 65.468315,319.212372 56.580898,319.212372 
	C57.617065,321.712830 58.247173,323.534851 59.100235,325.245697 
	C68.493988,344.085022 77.971771,362.882568 87.327553,381.740662 
	C96.604118,400.439117 105.876740,419.141449 114.883102,437.970276 
	C116.581139,441.520233 119.141159,440.990234 121.861214,440.990479 
	C231.178925,441.001038 340.496674,440.973511 449.814240,441.097778 
	C454.035919,441.102600 456.200745,439.927460 458.102417,436.048767 
	C476.484711,398.556061 495.104095,361.179565 513.638428,323.761292 
	C514.277710,322.470642 514.735962,321.090363 515.636414,318.869202 
	C506.769043,318.869202 498.610443,318.869202 490.040222,318.869202 
	C490.720612,316.678833 491.022797,315.221619 491.610260,313.890320 
	C496.947296,301.795776 502.211029,289.666565 507.735687,277.657715 
	C515.727783,260.285400 521.630493,242.474167 517.925537,223.055649 
	C514.562561,205.429535 505.037750,191.866394 488.483063,184.379425 
	C468.229065,175.219421 447.194977,176.033386 426.367462,182.124863 
	C400.557312,189.673615 374.979919,198.016266 349.202087,205.679947 
	C345.886536,206.665634 344.930267,207.871994 344.960999,211.007065 
	C345.068665,222.004440 344.987030,233.003555 345.028625,244.001831 
	C345.033325,245.242599 345.364471,246.482117 345.565277,247.867279 
	C346.763397,247.813583 347.636047,247.959824 348.379303,247.714340 
	C374.411499,239.117111 400.407379,230.409042 426.465393,221.891144 
	C436.667725,218.556168 446.936188,215.221237 457.927551,216.011154 
	C471.746307,217.004288 486.707092,228.713562 481.066223,246.360962 
	C473.536194,269.918701 464.649414,293.045197 456.181763,316.297302 
	C455.306152,318.701660 455.788269,319.930206 457.228546,321.900024 
	C462.076721,328.530762 466.567352,335.428406 471.035065,342.327332 
	C471.988678,343.799896 472.270325,345.707611 472.861511,347.414856 
	C472.311371,347.840240 471.761230,348.265625 471.211090,348.690979 
	C464.235992,343.095703 457.260895,337.500397 450.057068,331.721649 
	C442.314575,352.796143 434.594452,373.809784 426.874329,394.823395 
	C441.887634,384.033875 456.331818,378.735199 463.067291,379.710205 
	C457.371826,388.956482 451.112610,397.124817 441.382904,402.366089 
	C430.600861,408.174225 419.116150,409.286804 407.231415,409.028656 
	C400.100586,408.873779 393.958801,406.655975 390.770111,400.012299 
	C387.691040,393.596985 389.874603,387.236755 393.868530,382.035858 
	C395.689148,379.665100 399.836243,377.160065 402.336609,377.662048 
	C406.566101,378.511139 406.432922,383.290314 406.387848,387.109253 
	C406.380188,387.760132 406.078735,388.404968 406.050201,389.058594 
	C405.825592,394.205078 408.147675,396.897583 412.443909,397.461731 
	C414.669983,394.017822 416.257965,390.532410 418.752533,387.909210 
	C424.509247,381.855713 428.307251,374.947662 430.183167,366.830627 
	C432.304749,357.650665 422.255127,348.237488 413.010437,350.358398 
	C407.232056,351.684052 404.585175,356.384277 400.279236,359.325836 
	C400.157288,359.194641 400.035309,359.063416 399.990601,358.139282 
	C406.079315,340.821106 401.993378,324.282318 396.529327,306.775513 
	C382.549866,322.154663 371.425690,337.701874 370.697021,358.983978 
	C369.453369,357.849487 368.789764,357.341644 368.242401,356.729858 
	C362.288055,350.075439 356.876923,348.186218 349.921539,351.215912 
	C344.208954,353.704285 338.633789,358.447388 338.742401,368.116028 
	C338.848511,377.566742 344.077240,386.892548 339.007843,396.349518 
	C344.406464,398.121887 347.156494,395.503204 348.905090,391.578583 
	C350.241394,388.579224 350.724945,385.187836 352.151001,382.243622 
	C353.861938,378.711334 356.640411,375.443542 360.940277,376.292145 
	C365.064026,377.106018 366.349884,380.728119 365.995819,384.792603 
	C365.380035,391.861237 362.854858,397.881744 356.795258,402.086700 
	C348.362274,407.938690 338.852509,409.770599 328.922791,408.864319 
	C316.943481,407.770996 304.539368,393.427643 305.614380,381.321472 
	C314.632660,386.115204 323.244415,390.692841 331.609314,395.139282 
	C331.609314,374.507629 331.609314,353.321014 331.609314,331.320831 
	C326.353302,335.178467 321.883026,338.795837 317.077118,341.892273 
	C312.254181,344.999786 307.096619,347.588013 302.085724,350.403809 
	C304.306183,337.424713 310.708923,327.751068 319.945343,319.415955 
	C296.912720,319.415955 274.702545,319.415955 251.206360,319.415955 
	C260.010376,328.441406 267.576355,337.018005 270.274384,349.712982 
	C258.329712,346.004883 249.134354,339.671112 240.522644,331.275879 
	C240.522644,353.457367 240.522644,374.694183 240.522644,396.099640 
	C250.049103,390.998322 257.338898,382.548431 269.141632,381.864746 
	C268.228699,384.376678 267.529846,386.196655 266.902649,388.041046 
	C259.570892,409.601379 233.764954,413.187225 219.694305,405.349243 
	C212.205856,401.177856 208.320724,394.535706 206.156921,386.686127 
	C205.141083,383.000916 207.807800,378.246155 210.918610,377.181122 
	C215.032394,375.772705 218.280060,377.220795 220.297195,381.758881 
	C221.694855,384.903290 222.694427,388.227478 223.821198,391.488831 
	C225.467560,396.254181 228.696808,397.841400 233.763000,396.478485 
	C230.173599,387.941223 232.737198,379.478760 233.469406,371.006714 
	C234.041260,364.389923 233.522751,357.717651 227.785522,353.527802 
	C222.714890,349.824829 216.499069,348.470795 210.459686,351.414093 
	C207.083893,353.059265 204.208008,355.730164 201.112061,357.935181 
	C199.759811,338.052917 191.472275,321.307892 175.715759,307.553802 
	C171.550674,316.899719 169.198593,326.054169 169.207596,335.419495 
	C169.214798,342.923767 171.055832,350.426270 171.714981,358.320831 
	C171.592453,358.451447 171.469940,358.582031 170.842392,358.270294 
M170.500000,493.998383 
	C159.173477,493.999084 147.839920,493.752075 136.522476,494.073059 
	C126.059349,494.369812 116.511192,497.186707 110.673615,506.926422 
	C105.196396,516.064880 103.982536,525.493225 109.574989,535.096680 
	C114.919334,544.274109 122.880630,549.000854 133.567108,549.000671 
	C235.672577,548.999084 337.778046,549.013794 439.883514,548.976929 
	C450.061279,548.973267 457.395966,544.030640 462.329285,535.268738 
	C467.477936,526.124512 467.495361,516.846741 462.243805,507.914490 
	C456.055511,497.389099 445.841583,494.038239 434.342438,494.030609 
	C346.728333,493.972412 259.114166,493.998535 170.500000,493.998383 
M282.287994,177.050903 
	C285.520081,177.036728 288.787231,177.325790 291.978302,176.956863 
	C307.278107,175.188095 317.819031,166.599777 323.814301,152.861343 
	C331.036560,136.311218 325.612793,116.599167 311.456116,105.723000 
	C298.243439,95.572113 278.910034,93.974670 265.152557,103.334923 
	C250.122009,113.561363 244.340988,128.005005 247.176758,145.706680 
	C249.732834,161.662476 266.106049,176.282593 282.287994,177.050903 
M265.997772,302.312927 
	C265.997772,260.765625 265.997772,219.218292 265.997772,177.500763 
	C256.994751,177.500763 248.665695,177.500763 240.000000,177.500763 
	C240.000000,194.464355 239.999741,210.928101 240.000061,227.391861 
	C240.000565,252.519302 240.090332,277.647369 239.914398,302.773590 
	C239.885193,306.942993 241.130035,308.326263 245.268768,308.077118 
	C250.574600,307.757751 255.924332,307.797668 261.235687,308.066956 
	C264.950409,308.255280 266.550201,306.994385 265.997772,302.312927 
M307.000061,294.486816 
	C307.000061,298.770966 307.000061,303.055084 307.000061,307.661621 
	C315.549805,307.661621 323.437073,307.661621 331.662537,307.661621 
	C331.662537,264.116150 331.662537,220.896866 331.662537,177.338272 
	C323.449524,177.338272 315.562378,177.338272 307.000061,177.338272 
	C307.000061,216.273071 307.000061,254.882416 307.000061,294.486816 
M297.323883,44.090244 
	C296.828430,34.789886 300.991699,27.367279 307.517944,20.500187 
	C293.207947,20.500187 279.630310,20.500187 265.170197,20.500187 
	C272.594177,27.434324 275.509796,35.306835 276.016510,44.775761 
	C265.934082,45.199158 258.465393,40.865646 251.328705,34.359138 
	C251.328705,48.779057 251.328705,62.298107 251.328705,76.643509 
	C258.725128,70.016754 266.290192,65.555359 276.106934,66.250732 
	C275.851135,75.949348 273.081085,84.046021 265.553223,90.665909 
	C279.790497,90.665909 293.302704,90.665909 307.691254,90.665909 
	C301.164612,83.435341 298.088684,75.532349 297.218109,66.148262 
	C307.098572,66.353790 314.993286,70.677963 322.403381,76.141281 
	C322.403381,62.252361 322.403381,48.822624 322.403381,34.824970 
	C314.630524,40.516769 307.312439,45.256523 297.323883,44.090244 
M329.794708,469.926849 
	C338.231598,475.644104 346.668488,481.361389 355.034302,487.030487 
	C364.994293,480.331238 374.616089,473.859436 384.909363,466.936005 
	C374.905090,460.295380 365.874054,454.255157 356.763702,448.337097 
	C356.006775,447.845367 354.411255,447.728912 353.715820,448.196808 
	C344.583557,454.341553 335.543182,460.622894 326.286285,467.003357 
	C327.511658,468.099457 328.351288,468.850494 329.794708,469.926849 
M308.939606,462.517731 
	C302.309692,458.170624 295.514587,454.049042 289.127747,449.370148 
	C286.409973,447.379181 284.534119,447.748596 282.211578,449.400909 
	C277.365906,452.848175 272.493073,456.257324 267.632629,459.683868 
	C264.205078,462.100189 260.779480,464.519409 256.921509,467.241791 
	C264.385864,472.480194 271.116180,477.255127 277.901154,481.951080 
	C285.312164,487.080444 285.330627,487.043152 293.092834,481.972443 
	C294.614716,480.978302 296.199341,480.079773 297.714813,479.076416 
	C303.534912,475.223114 309.338684,471.345123 315.550629,467.208557 
	C312.990509,465.427582 311.239349,464.209412 308.939606,462.517731 
M402.500549,473.000641 
	C409.282593,477.646393 416.064636,482.292114 423.002411,487.044525 
	C432.835815,480.429779 442.540985,473.901276 452.933319,466.910553 
	C442.986755,460.346436 434.118011,454.377136 425.075745,448.683319 
	C424.023773,448.020874 421.695892,448.378235 420.499268,449.126251 
	C415.337921,452.352692 410.369507,455.888977 405.347015,459.335907 
	C401.869293,461.722656 398.417877,464.147736 394.162415,467.106567 
	C397.208527,469.227325 399.580170,470.878540 402.500549,473.000641 
M228.341293,455.123047 
	C224.366714,452.540283 220.392136,449.957489 216.315063,447.308105 
	C206.758652,453.870972 197.328110,460.347382 187.347061,467.201904 
	C197.312149,474.042175 206.530655,480.370026 216.323120,487.091797 
	C225.892624,480.694550 235.728851,474.118958 246.119080,467.173035 
	C239.826584,462.904785 234.387344,459.215302 228.341293,455.123047 
M171.935379,470.487823 
	C173.289719,469.394318 174.644058,468.300812 176.491241,466.809418 
	C169.699158,462.333344 162.934708,458.746185 157.238342,453.902802 
	C149.991455,447.740997 143.928253,447.728058 136.760620,453.933105 
	C131.105408,458.828888 124.547226,462.681610 118.005173,467.267426 
	C128.094376,474.162018 137.593765,480.653534 146.895493,487.010010 
	C151.363052,484.090424 155.379822,481.486603 159.374298,478.849060 
	C163.368439,476.211731 167.340317,473.540649 171.935379,470.487823 
M378.029175,168.544754 
	C379.132935,182.133820 391.693024,186.190674 399.459229,182.796494 
	C406.608307,179.672043 410.545258,171.443237 408.069916,163.923569 
	C405.553802,156.280106 397.870941,152.132065 390.235596,153.775681 
	C382.520935,155.436371 379.767365,161.038193 378.029175,168.544754 
M345.858063,189.605438 
	C351.358429,196.779144 360.780396,197.183624 366.435669,192.922516 
	C373.964386,187.249771 375.176392,177.914307 369.754639,170.507126 
	C365.456512,164.634979 355.172607,163.107025 349.056641,167.579834 
	C343.857391,171.382217 339.096954,181.071381 345.858063,189.605438 
M200.752106,184.388794 
	C203.419495,192.630341 214.530289,199.793945 225.651871,190.617340 
	C230.584473,186.547379 231.574661,176.373428 227.740555,170.505493 
	C224.374893,165.354568 215.101913,162.618286 209.639603,165.164261 
	C201.543320,168.937912 199.281296,173.435989 200.752106,184.388794 
M535.146606,298.511963 
	C538.619263,292.972656 539.125427,287.297424 535.206604,281.861725 
	C531.434937,276.630310 526.019104,273.907898 519.657349,275.194275 
	C513.430115,276.453491 509.302460,280.682526 507.518646,286.970398 
	C505.758362,293.175171 508.785095,300.106598 514.730408,303.309662 
	C522.169189,307.317352 529.177612,305.898376 535.146606,298.511963 
M27.698206,233.973816 
	C34.544460,236.072357 41.929420,232.258316 44.990459,226.088943 
	C48.083588,219.854919 47.151894,213.567200 42.008694,208.508652 
	C36.971329,203.554230 30.312212,202.553421 24.332811,205.909378 
	C19.049202,208.874832 15.920048,213.276733 16.038397,219.474548 
	C16.178717,226.823044 20.269863,231.357376 27.698206,233.973816 
M48.613636,261.728729 
	C51.034763,255.858017 50.400028,250.501877 46.249126,245.520676 
	C41.636341,239.985153 33.448277,238.405121 26.986225,242.028000 
	C21.041124,245.361053 18.012266,253.576431 20.033855,259.905212 
	C22.181095,266.627319 27.160347,269.981598 33.577526,270.583038 
	C39.913464,271.176880 44.986103,268.105743 48.613636,261.728729 
M194.022491,163.695175 
	C191.813766,157.099777 187.449020,153.389053 180.308945,152.968094 
	C173.166885,152.546982 168.334900,155.400223 165.430267,162.012985 
	C162.896378,167.781693 163.900879,174.547119 168.411255,178.867188 
	C173.284134,183.534470 181.508423,184.477097 187.182938,180.886887 
	C191.839066,177.940994 196.424255,171.735199 194.022491,163.695175 
M292.443115,298.175201 
	C293.549957,297.464783 294.788116,296.897064 295.741394,296.019806 
	C300.373047,291.757660 302.135895,286.439880 300.624298,280.346985 
	C298.961517,273.644409 293.874756,270.239288 287.557465,269.206970 
	C281.778442,268.262604 276.958649,270.735199 273.616333,275.725769 
	C269.654419,281.641479 269.880493,288.593384 274.259033,294.516876 
	C277.581421,299.011536 284.823059,300.703064 292.443115,298.175201 
M534.942017,242.036453 
	C523.182739,245.427292 518.878174,255.323395 524.917664,265.560883 
	C527.863586,270.554565 532.554688,272.308441 538.330811,272.068512 
	C543.532288,271.852417 547.594971,270.161621 550.187500,265.468933 
	C556.810364,253.481003 549.785706,242.018967 534.942017,242.036453 
M147.101013,143.036453 
	C144.524170,143.466736 141.799103,143.502090 139.398911,144.403015 
	C132.784088,146.886002 128.690170,154.801315 130.091919,161.713684 
	C131.389114,168.110458 139.400757,174.408401 145.688293,173.973938 
	C153.328903,173.445984 159.245316,167.795319 160.071823,160.236450 
	C160.984024,151.893875 158.052704,147.765030 147.101013,143.036453 
M457.591125,142.804886 
	C456.177094,143.925598 454.578522,144.879059 453.383240,146.198013 
	C449.606323,150.365707 448.569885,158.059601 450.962280,162.824524 
	C453.751892,168.380569 460.119324,172.183563 465.727081,171.582825 
	C472.427826,170.865005 476.931763,167.492279 479.151794,160.943176 
	C481.180542,154.958435 479.969391,149.524750 475.677368,145.450272 
	C470.834259,140.852676 464.736450,139.525543 457.591125,142.804886 
M514.352783,192.781815 
	C517.279663,198.298645 521.807617,201.849106 528.075989,201.706009 
	C534.413757,201.561325 539.404724,198.227371 541.954651,192.290939 
	C544.733215,185.822388 542.563660,177.997025 537.364136,173.919052 
	C532.219849,169.884445 524.449219,170.020569 518.499329,174.249557 
	C513.318420,177.931976 511.554657,184.951447 514.352783,192.781815 
M504.459045,149.831345 
	C498.101318,146.754700 492.339355,148.567154 487.786987,153.057388 
	C483.244629,157.537750 482.448547,163.457184 484.868744,169.476334 
	C487.592712,176.250931 493.314240,179.610687 500.595001,178.977005 
	C506.755768,178.440781 512.569153,173.108215 513.901978,166.770676 
	C515.328308,159.988281 512.189758,153.977341 504.459045,149.831345 
M98.512199,144.002243 
	C97.012009,148.048660 94.512131,152.031891 94.251495,156.156631 
	C93.882408,161.997650 97.529076,166.496445 102.924545,168.767975 
	C108.407326,171.076233 113.966232,170.832108 118.725060,166.713089 
	C123.193581,162.845352 125.395317,158.389832 124.265839,151.970047 
	C122.262817,140.585098 107.355705,135.976303 98.512199,144.002243 
M55.058434,302.971588 
	C55.644672,302.663788 56.248035,302.384460 56.814495,302.043762 
	C62.618080,298.553162 64.599136,293.133972 63.881233,286.772064 
	C63.188564,280.633789 59.468220,276.509735 53.730755,274.408997 
	C48.179588,272.376495 41.617729,274.352936 37.508377,278.998016 
	C33.366943,283.679352 32.320473,291.724274 35.237431,296.456573 
	C39.179428,302.851807 45.992489,305.283264 55.058434,302.971588 
M554.055481,211.606995 
	C553.237305,210.782349 552.504883,209.844055 551.586792,209.151947 
	C546.476929,205.299789 540.878845,204.257523 535.018311,207.067123 
	C529.389099,209.765839 526.280090,215.840591 526.914062,222.025909 
	C527.640015,229.108521 530.927307,233.178070 537.584412,235.235443 
	C543.388611,237.029251 549.973633,235.425888 553.322510,231.033783 
	C557.850403,225.095413 558.541443,218.747513 554.055481,211.606995 
M30.134424,180.883240 
	C30.080519,181.379623 30.065165,181.883759 29.966930,182.371216 
	C28.461277,189.842239 31.977173,196.042267 39.515862,199.190369 
	C45.550629,201.710449 53.198120,199.570496 56.848236,194.340347 
	C61.316265,187.938217 61.054306,179.900894 56.208618,174.715836 
	C48.166573,166.110565 36.180496,168.644165 30.134424,180.883240 
M275.500549,234.001495 
	C270.734711,238.271805 270.061798,243.853775 271.386536,249.523056 
	C272.898773,255.994614 279.440216,260.160400 286.513062,259.993439 
	C293.450806,259.829681 298.570831,255.780334 300.550812,248.891251 
	C302.397736,242.465134 299.707672,235.443573 294.101868,232.058258 
	C287.795898,228.250107 281.294525,228.758453 275.500549,234.001495 
M288.569458,187.968079 
	C282.621216,186.544861 278.036530,188.721069 274.250397,193.251068 
	C268.849579,199.713013 270.089569,210.317703 276.901978,215.318481 
	C283.567139,220.211105 293.526337,218.253098 298.273132,211.494186 
	C304.099182,203.198517 300.730652,190.983154 288.569458,187.968079 
M429.273895,144.004013 
	C417.560791,142.422836 410.072205,154.593567 413.875732,164.508698 
	C416.747955,171.996094 424.112213,175.530380 432.116547,173.842834 
	C438.199615,172.560333 443.655121,164.722504 443.137360,158.540436 
	C442.501526,150.949081 438.166016,145.511948 429.273895,144.004013 
M60.812252,169.418533 
	C62.407681,171.294830 63.779213,173.438599 65.640770,174.996994 
	C71.105713,179.572037 79.946709,179.141739 85.205231,174.288620 
	C90.674263,169.241196 91.656456,159.831482 87.331657,153.916855 
	C83.226257,148.302292 74.365105,146.218552 68.144501,149.404907 
	C61.290318,152.915787 58.965263,158.724503 60.812252,169.418533 
z"/>
<path fill="#54565B" opacity="1.000000" stroke="none" 
	d="
M400.644653,359.719910 
	C404.585175,356.384277 407.232056,351.684052 413.010437,350.358398 
	C422.255127,348.237488 432.304749,357.650665 430.183167,366.830627 
	C428.307251,374.947662 424.509247,381.855713 418.752533,387.909210 
	C416.257965,390.532410 414.669983,394.017822 412.443909,397.461731 
	C408.147675,396.897583 405.825592,394.205078 406.050201,389.058594 
	C406.078735,388.404968 406.380188,387.760132 406.387848,387.109253 
	C406.432922,383.290314 406.566101,378.511139 402.336609,377.662048 
	C399.836243,377.160065 395.689148,379.665100 393.868530,382.035858 
	C389.874603,387.236755 387.691040,393.596985 390.770111,400.012299 
	C393.958801,406.655975 400.100586,408.873779 407.231415,409.028656 
	C419.116150,409.286804 430.600861,408.174225 441.382904,402.366089 
	C451.112610,397.124817 457.371826,388.956482 463.067291,379.710205 
	C456.331818,378.735199 441.887634,384.033875 426.874329,394.823395 
	C434.594452,373.809784 442.314575,352.796143 450.057068,331.721649 
	C457.260895,337.500397 464.235992,343.095703 471.211090,348.690979 
	C471.761230,348.265625 472.311371,347.840240 472.861511,347.414856 
	C472.270325,345.707611 471.988678,343.799896 471.035065,342.327332 
	C466.567352,335.428406 462.076721,328.530762 457.228546,321.900024 
	C455.788269,319.930206 455.306152,318.701660 456.181763,316.297302 
	C464.649414,293.045197 473.536194,269.918701 481.066223,246.360962 
	C486.707092,228.713562 471.746307,217.004288 457.927551,216.011154 
	C446.936188,215.221237 436.667725,218.556168 426.465393,221.891144 
	C400.407379,230.409042 374.411499,239.117111 348.379303,247.714340 
	C347.636047,247.959824 346.763397,247.813583 345.565277,247.867279 
	C345.364471,246.482117 345.033325,245.242599 345.028625,244.001831 
	C344.987030,233.003555 345.068665,222.004440 344.960999,211.007065 
	C344.930267,207.871994 345.886536,206.665634 349.202087,205.679947 
	C374.979919,198.016266 400.557312,189.673615 426.367462,182.124863 
	C447.194977,176.033386 468.229065,175.219421 488.483063,184.379425 
	C505.037750,191.866394 514.562561,205.429535 517.925537,223.055649 
	C521.630493,242.474167 515.727783,260.285400 507.735687,277.657715 
	C502.211029,289.666565 496.947296,301.795776 491.610260,313.890320 
	C491.022797,315.221619 490.720612,316.678833 490.040222,318.869202 
	C498.610443,318.869202 506.769043,318.869202 515.636414,318.869202 
	C514.735962,321.090363 514.277710,322.470642 513.638428,323.761292 
	C495.104095,361.179565 476.484711,398.556061 458.102417,436.048767 
	C456.200745,439.927460 454.035919,441.102600 449.814240,441.097778 
	C340.496674,440.973511 231.178925,441.001038 121.861214,440.990479 
	C119.141159,440.990234 116.581139,441.520233 114.883102,437.970276 
	C105.876740,419.141449 96.604118,400.439117 87.327553,381.740662 
	C77.971771,362.882568 68.493988,344.085022 59.100235,325.245697 
	C58.247173,323.534851 57.617065,321.712830 56.580898,319.212372 
	C65.468315,319.212372 73.548286,319.212372 82.411369,319.212372 
	C81.778694,316.911285 81.528679,315.194305 80.852173,313.666138 
	C73.895058,297.950653 66.244049,282.507599 60.048023,266.500275 
	C54.503819,252.176941 50.714458,237.389221 54.835445,221.556320 
	C60.538982,199.643219 79.915184,181.490402 102.431755,177.927841 
	C121.564117,174.900742 139.966644,178.240555 158.094391,184.116837 
	C179.138779,190.938583 200.142838,197.888000 221.245834,204.523026 
	C225.614761,205.896698 227.251526,207.937210 227.113831,212.611633 
	C226.771286,224.239258 227.001129,235.883743 227.001129,248.292557 
	C224.457306,247.515717 222.616516,246.957428 220.778046,246.391556 
	C188.763779,236.537399 156.997437,225.750244 124.648491,217.155991 
	C103.169479,211.449600 92.227478,221.540375 90.438156,242.000198 
	C89.861435,248.594681 93.436134,255.737732 95.829521,262.370819 
	C102.327423,280.379211 109.177979,298.260925 115.975517,316.159912 
	C116.940575,318.701050 116.201530,320.242523 114.439751,322.183197 
	C106.283508,331.167450 100.814659,338.470245 99.289978,347.607056 
	C109.292168,346.188629 115.480072,339.523193 121.818001,331.488403 
	C129.716888,353.323944 137.293533,374.268677 145.391342,396.654114 
	C133.862198,388.522858 123.720818,380.719238 109.991585,378.915985 
	C113.110123,388.562561 119.044167,395.210510 126.699379,399.995422 
	C136.784424,406.299133 148.043213,409.950043 160.000458,409.800873 
	C165.104034,409.737244 170.444809,408.161255 175.201736,406.147736 
	C180.858459,403.753448 183.697968,398.704437 182.909561,392.422882 
	C182.083633,385.842224 178.909317,380.453003 172.756912,377.473541 
	C169.628769,375.958679 166.426743,378.594269 166.018723,382.537109 
	C165.679611,385.813965 165.893646,389.305664 164.775620,392.295746 
	C163.840759,394.795959 161.332520,396.707855 158.730042,398.520630 
	C160.060715,393.608398 157.218018,391.131714 154.785828,388.122864 
	C150.863846,383.270996 147.112350,378.180786 144.045105,372.763092 
	C139.895340,365.433319 141.185287,357.714081 146.899048,353.762665 
	C153.759399,349.018280 160.864212,348.931152 167.984833,355.484161 
	C168.963333,356.384644 169.891113,357.340240 171.266174,358.667175 
	C172.060471,359.071533 172.431015,359.078979 172.801544,359.086426 
	C172.562027,358.700836 172.322525,358.315186 172.083008,357.929565 
	C171.055832,350.426270 169.214798,342.923767 169.207596,335.419495 
	C169.198593,326.054169 171.550674,316.899719 175.715759,307.553802 
	C191.472275,321.307892 199.759811,338.052917 201.112061,357.935181 
	C204.208008,355.730164 207.083893,353.059265 210.459686,351.414093 
	C216.499069,348.470795 222.714890,349.824829 227.785522,353.527802 
	C233.522751,357.717651 234.041260,364.389923 233.469406,371.006714 
	C232.737198,379.478760 230.173599,387.941223 233.763000,396.478485 
	C228.696808,397.841400 225.467560,396.254181 223.821198,391.488831 
	C222.694427,388.227478 221.694855,384.903290 220.297195,381.758881 
	C218.280060,377.220795 215.032394,375.772705 210.918610,377.181122 
	C207.807800,378.246155 205.141083,383.000916 206.156921,386.686127 
	C208.320724,394.535706 212.205856,401.177856 219.694305,405.349243 
	C233.764954,413.187225 259.570892,409.601379 266.902649,388.041046 
	C267.529846,386.196655 268.228699,384.376678 269.141632,381.864746 
	C257.338898,382.548431 250.049103,390.998322 240.522644,396.099640 
	C240.522644,374.694183 240.522644,353.457367 240.522644,331.275879 
	C249.134354,339.671112 258.329712,346.004883 270.274384,349.712982 
	C267.576355,337.018005 260.010376,328.441406 251.206360,319.415955 
	C274.702545,319.415955 296.912720,319.415955 319.945343,319.415955 
	C310.708923,327.751068 304.306183,337.424713 302.085724,350.403809 
	C307.096619,347.588013 312.254181,344.999786 317.077118,341.892273 
	C321.883026,338.795837 326.353302,335.178467 331.609314,331.320831 
	C331.609314,353.321014 331.609314,374.507629 331.609314,395.139282 
	C323.244415,390.692841 314.632660,386.115204 305.614380,381.321472 
	C304.539368,393.427643 316.943481,407.770996 328.922791,408.864319 
	C338.852509,409.770599 348.362274,407.938690 356.795258,402.086700 
	C362.854858,397.881744 365.380035,391.861237 365.995819,384.792603 
	C366.349884,380.728119 365.064026,377.106018 360.940277,376.292145 
	C356.640411,375.443542 353.861938,378.711334 352.151001,382.243622 
	C350.724945,385.187836 350.241394,388.579224 348.905090,391.578583 
	C347.156494,395.503204 344.406464,398.121887 339.007843,396.349518 
	C344.077240,386.892548 338.848511,377.566742 338.742401,368.116028 
	C338.633789,358.447388 344.208954,353.704285 349.921539,351.215912 
	C356.876923,348.186218 362.288055,350.075439 368.242401,356.729858 
	C368.789764,357.341644 369.453369,357.849487 370.697021,358.983978 
	C371.425690,337.701874 382.549866,322.154663 396.529327,306.775513 
	C401.993378,324.282318 406.079315,340.821106 399.734863,358.660034 
	C399.467377,359.624054 399.455627,360.067322 399.443909,360.510620 
	C399.844177,360.247040 400.244415,359.983459 400.644653,359.719910 
z"/>
<path fill="#54565B" opacity="1.000000" stroke="none" 
	d="
M171.000000,493.998383 
	C259.114166,493.998535 346.728333,493.972412 434.342438,494.030609 
	C445.841583,494.038239 456.055511,497.389099 462.243805,507.914490 
	C467.495361,516.846741 467.477936,526.124512 462.329285,535.268738 
	C457.395966,544.030640 450.061279,548.973267 439.883514,548.976929 
	C337.778046,549.013794 235.672577,548.999084 133.567108,549.000671 
	C122.880630,549.000854 114.919334,544.274109 109.574989,535.096680 
	C103.982536,525.493225 105.196396,516.064880 110.673615,506.926422 
	C116.511192,497.186707 126.059349,494.369812 136.522476,494.073059 
	C147.839920,493.752075 159.173477,493.999084 171.000000,493.998383 
z"/>
<path fill="#54565B" opacity="1.000000" stroke="none" 
	d="
M281.855103,177.033096 
	C266.106049,176.282593 249.732834,161.662476 247.176758,145.706680 
	C244.340988,128.005005 250.122009,113.561363 265.152557,103.334923 
	C278.910034,93.974670 298.243439,95.572113 311.456116,105.723000 
	C325.612793,116.599167 331.036560,136.311218 323.814301,152.861343 
	C317.819031,166.599777 307.278107,175.188095 291.978302,176.956863 
	C288.787231,177.325790 285.520081,177.036728 281.855103,177.033096 
z"/>
<path fill="#54565B" opacity="1.000000" stroke="none" 
	d="
M265.996582,302.789429 
	C266.550201,306.994385 264.950409,308.255280 261.235687,308.066956 
	C255.924332,307.797668 250.574600,307.757751 245.268768,308.077118 
	C241.130035,308.326263 239.885193,306.942993 239.914398,302.773590 
	C240.090332,277.647369 240.000565,252.519302 240.000061,227.391861 
	C239.999741,210.928101 240.000000,194.464355 240.000000,177.500763 
	C248.665695,177.500763 256.994751,177.500763 265.997772,177.500763 
	C265.997772,219.218292 265.997772,260.765625 265.996582,302.789429 
z"/>
<path fill="#54565B" opacity="1.000000" stroke="none" 
	d="
M307.000061,293.989288 
	C307.000061,254.882416 307.000061,216.273071 307.000061,177.338272 
	C315.562378,177.338272 323.449524,177.338272 331.662537,177.338272 
	C331.662537,220.896866 331.662537,264.116150 331.662537,307.661621 
	C323.437073,307.661621 315.549805,307.661621 307.000061,307.661621 
	C307.000061,303.055084 307.000061,298.770966 307.000061,293.989288 
z"/>
<path fill="#54565B" opacity="1.000000" stroke="none" 
	d="
M297.627502,44.387398 
	C307.312439,45.256523 314.630524,40.516769 322.403381,34.824970 
	C322.403381,48.822624 322.403381,62.252361 322.403381,76.141281 
	C314.993286,70.677963 307.098572,66.353790 297.218109,66.148262 
	C298.088684,75.532349 301.164612,83.435341 307.691254,90.665909 
	C293.302704,90.665909 279.790497,90.665909 265.553223,90.665909 
	C273.081085,84.046021 275.851135,75.949348 276.106934,66.250732 
	C266.290192,65.555359 258.725128,70.016754 251.328705,76.643509 
	C251.328705,62.298107 251.328705,48.779057 251.328705,34.359138 
	C258.465393,40.865646 265.934082,45.199158 276.016510,44.775761 
	C275.509796,35.306835 272.594177,27.434324 265.170197,20.500187 
	C279.630310,20.500187 293.207947,20.500187 307.517944,20.500187 
	C300.991699,27.367279 296.828430,34.789886 297.627502,44.387398 
z"/>
<path fill="#54565B" opacity="1.000000" stroke="none" 
	d="
M329.492798,469.764221 
	C328.351288,468.850494 327.511658,468.099457 326.286285,467.003357 
	C335.543182,460.622894 344.583557,454.341553 353.715820,448.196808 
	C354.411255,447.728912 356.006775,447.845367 356.763702,448.337097 
	C365.874054,454.255157 374.905090,460.295380 384.909363,466.936005 
	C374.616089,473.859436 364.994293,480.331238 355.034302,487.030487 
	C346.668488,481.361389 338.231598,475.644104 329.492798,469.764221 
z"/>
<path fill="#54565B" opacity="1.000000" stroke="none" 
	d="
M309.213898,462.754456 
	C311.239349,464.209412 312.990509,465.427582 315.550629,467.208557 
	C309.338684,471.345123 303.534912,475.223114 297.714813,479.076416 
	C296.199341,480.079773 294.614716,480.978302 293.092834,481.972443 
	C285.330627,487.043152 285.312164,487.080444 277.901154,481.951080 
	C271.116180,477.255127 264.385864,472.480194 256.921509,467.241791 
	C260.779480,464.519409 264.205078,462.100189 267.632629,459.683868 
	C272.493073,456.257324 277.365906,452.848175 282.211578,449.400909 
	C284.534119,447.748596 286.409973,447.379181 289.127747,449.370148 
	C295.514587,454.049042 302.309692,458.170624 309.213898,462.754456 
z"/>
<path fill="#54565B" opacity="1.000000" stroke="none" 
	d="
M402.226196,472.765198 
	C399.580170,470.878540 397.208527,469.227325 394.162415,467.106567 
	C398.417877,464.147736 401.869293,461.722656 405.347015,459.335907 
	C410.369507,455.888977 415.337921,452.352692 420.499268,449.126251 
	C421.695892,448.378235 424.023773,448.020874 425.075745,448.683319 
	C434.118011,454.377136 442.986755,460.346436 452.933319,466.910553 
	C442.540985,473.901276 432.835815,480.429779 423.002411,487.044525 
	C416.064636,482.292114 409.282593,477.646393 402.226196,472.765198 
z"/>
<path fill="#54565B" opacity="1.000000" stroke="none" 
	d="
M228.644699,455.324432 
	C234.387344,459.215302 239.826584,462.904785 246.119080,467.173035 
	C235.728851,474.118958 225.892624,480.694550 216.323120,487.091797 
	C206.530655,480.370026 197.312149,474.042175 187.347061,467.201904 
	C197.328110,460.347382 206.758652,453.870972 216.315063,447.308105 
	C220.392136,449.957489 224.366714,452.540283 228.644699,455.324432 
z"/>
<path fill="#54565B" opacity="1.000000" stroke="none" 
	d="
M171.628662,470.686096 
	C167.340317,473.540649 163.368439,476.211731 159.374298,478.849060 
	C155.379822,481.486603 151.363052,484.090424 146.895493,487.010010 
	C137.593765,480.653534 128.094376,474.162018 118.005173,467.267426 
	C124.547226,462.681610 131.105408,458.828888 136.760620,453.933105 
	C143.928253,447.728058 149.991455,447.740997 157.238342,453.902802 
	C162.934708,458.746185 169.699158,462.333344 176.491241,466.809418 
	C174.644058,468.300812 173.289719,469.394318 171.628662,470.686096 
z"/>
<path fill="#54565B" opacity="1.000000" stroke="none" 
	d="
M378.038666,168.137817 
	C379.767365,161.038193 382.520935,155.436371 390.235596,153.775681 
	C397.870941,152.132065 405.553802,156.280106 408.069916,163.923569 
	C410.545258,171.443237 406.608307,179.672043 399.459229,182.796494 
	C391.693024,186.190674 379.132935,182.133820 378.038666,168.137817 
z"/>
<path fill="#54565B" opacity="1.000000" stroke="none" 
	d="
M345.639954,189.301529 
	C339.096954,181.071381 343.857391,171.382217 349.056641,167.579834 
	C355.172607,163.107025 365.456512,164.634979 369.754639,170.507126 
	C375.176392,177.914307 373.964386,187.249771 366.435669,192.922516 
	C360.780396,197.183624 351.358429,196.779144 345.639954,189.301529 
z"/>
<path fill="#54565B" opacity="1.000000" stroke="none" 
	d="
M200.538589,184.037476 
	C199.281296,173.435989 201.543320,168.937912 209.639603,165.164261 
	C215.101913,162.618286 224.374893,165.354568 227.740555,170.505493 
	C231.574661,176.373428 230.584473,186.547379 225.651871,190.617340 
	C214.530289,199.793945 203.419495,192.630341 200.538589,184.037476 
z"/>
<path fill="#54565B" opacity="1.000000" stroke="none" 
	d="
M535.023071,298.869019 
	C529.177612,305.898376 522.169189,307.317352 514.730408,303.309662 
	C508.785095,300.106598 505.758362,293.175171 507.518646,286.970398 
	C509.302460,280.682526 513.430115,276.453491 519.657349,275.194275 
	C526.019104,273.907898 531.434937,276.630310 535.206604,281.861725 
	C539.125427,287.297424 538.619263,292.972656 535.023071,298.869019 
z"/>
<path fill="#54565B" opacity="1.000000" stroke="none" 
	d="
M27.309669,233.922974 
	C20.269863,231.357376 16.178717,226.823044 16.038397,219.474548 
	C15.920048,213.276733 19.049202,208.874832 24.332811,205.909378 
	C30.312212,202.553421 36.971329,203.554230 42.008694,208.508652 
	C47.151894,213.567200 48.083588,219.854919 44.990459,226.088943 
	C41.929420,232.258316 34.544460,236.072357 27.309669,233.922974 
z"/>
<path fill="#54565B" opacity="1.000000" stroke="none" 
	d="
M48.366028,262.027588 
	C44.986103,268.105743 39.913464,271.176880 33.577526,270.583038 
	C27.160347,269.981598 22.181095,266.627319 20.033855,259.905212 
	C18.012266,253.576431 21.041124,245.361053 26.986225,242.028000 
	C33.448277,238.405121 41.636341,239.985153 46.249126,245.520676 
	C50.400028,250.501877 51.034763,255.858017 48.366028,262.027588 
z"/>
<path fill="#54565B" opacity="1.000000" stroke="none" 
	d="
M194.104660,164.084503 
	C196.424255,171.735199 191.839066,177.940994 187.182938,180.886887 
	C181.508423,184.477097 173.284134,183.534470 168.411255,178.867188 
	C163.900879,174.547119 162.896378,167.781693 165.430267,162.012985 
	C168.334900,155.400223 173.166885,152.546982 180.308945,152.968094 
	C187.449020,153.389053 191.813766,157.099777 194.104660,164.084503 
z"/>
<path fill="#54565B" opacity="1.000000" stroke="none" 
	d="
M292.116821,298.393585 
	C284.823059,300.703064 277.581421,299.011536 274.259033,294.516876 
	C269.880493,288.593384 269.654419,281.641479 273.616333,275.725769 
	C276.958649,270.735199 281.778442,268.262604 287.557465,269.206970 
	C293.874756,270.239288 298.961517,273.644409 300.624298,280.346985 
	C302.135895,286.439880 300.373047,291.757660 295.741394,296.019806 
	C294.788116,296.897064 293.549957,297.464783 292.116821,298.393585 
z"/>
<path fill="#54565B" opacity="1.000000" stroke="none" 
	d="
M535.365967,242.024414 
	C549.785706,242.018967 556.810364,253.481003 550.187500,265.468933 
	C547.594971,270.161621 543.532288,271.852417 538.330811,272.068512 
	C532.554688,272.308441 527.863586,270.554565 524.917664,265.560883 
	C518.878174,255.323395 523.182739,245.427292 535.365967,242.024414 
z"/>
<path fill="#54565B" opacity="1.000000" stroke="none" 
	d="
M147.507050,143.073456 
	C158.052704,147.765030 160.984024,151.893875 160.071823,160.236450 
	C159.245316,167.795319 153.328903,173.445984 145.688293,173.973938 
	C139.400757,174.408401 131.389114,168.110458 130.091919,161.713684 
	C128.690170,154.801315 132.784088,146.886002 139.398911,144.403015 
	C141.799103,143.502090 144.524170,143.466736 147.507050,143.073456 
z"/>
<path fill="#54565B" opacity="1.000000" stroke="none" 
	d="
M457.915314,142.586441 
	C464.736450,139.525543 470.834259,140.852676 475.677368,145.450272 
	C479.969391,149.524750 481.180542,154.958435 479.151794,160.943176 
	C476.931763,167.492279 472.427826,170.865005 465.727081,171.582825 
	C460.119324,172.183563 453.751892,168.380569 450.962280,162.824524 
	C448.569885,158.059601 449.606323,150.365707 453.383240,146.198013 
	C454.578522,144.879059 456.177094,143.925598 457.915314,142.586441 
z"/>
<path fill="#54565B" opacity="1.000000" stroke="none" 
	d="
M514.189575,192.416550 
	C511.554657,184.951447 513.318420,177.931976 518.499329,174.249557 
	C524.449219,170.020569 532.219849,169.884445 537.364136,173.919052 
	C542.563660,177.997025 544.733215,185.822388 541.954651,192.290939 
	C539.404724,198.227371 534.413757,201.561325 528.075989,201.706009 
	C521.807617,201.849106 517.279663,198.298645 514.189575,192.416550 
z"/>
<path fill="#54565B" opacity="1.000000" stroke="none" 
	d="
M504.821564,149.952759 
	C512.189758,153.977341 515.328308,159.988281 513.901978,166.770676 
	C512.569153,173.108215 506.755768,178.440781 500.595001,178.977005 
	C493.314240,179.610687 487.592712,176.250931 484.868744,169.476334 
	C482.448547,163.457184 483.244629,157.537750 487.786987,153.057388 
	C492.339355,148.567154 498.101318,146.754700 504.821564,149.952759 
z"/>
<path fill="#54565B" opacity="1.000000" stroke="none" 
	d="
M98.777435,143.734039 
	C107.355705,135.976303 122.262817,140.585098 124.265839,151.970047 
	C125.395317,158.389832 123.193581,162.845352 118.725060,166.713089 
	C113.966232,170.832108 108.407326,171.076233 102.924545,168.767975 
	C97.529076,166.496445 93.882408,161.997650 94.251495,156.156631 
	C94.512131,152.031891 97.012009,148.048660 98.777435,143.734039 
z"/>
<path fill="#54565B" opacity="1.000000" stroke="none" 
	d="
M54.682800,303.116882 
	C45.992489,305.283264 39.179428,302.851807 35.237431,296.456573 
	C32.320473,291.724274 33.366943,283.679352 37.508377,278.998016 
	C41.617729,274.352936 48.179588,272.376495 53.730755,274.408997 
	C59.468220,276.509735 63.188564,280.633789 63.881233,286.772064 
	C64.599136,293.133972 62.618080,298.553162 56.814495,302.043762 
	C56.248035,302.384460 55.644672,302.663788 54.682800,303.116882 
z"/>
<path fill="#54565B" opacity="1.000000" stroke="none" 
	d="
M554.308838,211.889465 
	C558.541443,218.747513 557.850403,225.095413 553.322510,231.033783 
	C549.973633,235.425888 543.388611,237.029251 537.584412,235.235443 
	C530.927307,233.178070 527.640015,229.108521 526.914062,222.025909 
	C526.280090,215.840591 529.389099,209.765839 535.018311,207.067123 
	C540.878845,204.257523 546.476929,205.299789 551.586792,209.151947 
	C552.504883,209.844055 553.237305,210.782349 554.308838,211.889465 
z"/>
<path fill="#54565B" opacity="1.000000" stroke="none" 
	d="
M30.276897,180.525192 
	C36.180496,168.644165 48.166573,166.110565 56.208618,174.715836 
	C61.054306,179.900894 61.316265,187.938217 56.848236,194.340347 
	C53.198120,199.570496 45.550629,201.710449 39.515862,199.190369 
	C31.977173,196.042267 28.461277,189.842239 29.966930,182.371216 
	C30.065165,181.883759 30.080519,181.379623 30.276897,180.525192 
z"/>
<path fill="#54565B" opacity="1.000000" stroke="none" 
	d="
M275.763123,233.736557 
	C281.294525,228.758453 287.795898,228.250107 294.101868,232.058258 
	C299.707672,235.443573 302.397736,242.465134 300.550812,248.891251 
	C298.570831,255.780334 293.450806,259.829681 286.513062,259.993439 
	C279.440216,260.160400 272.898773,255.994614 271.386536,249.523056 
	C270.061798,243.853775 270.734711,238.271805 275.763123,233.736557 
z"/>
<path fill="#54565B" opacity="1.000000" stroke="none" 
	d="
M288.958069,187.999191 
	C300.730652,190.983154 304.099182,203.198517 298.273132,211.494186 
	C293.526337,218.253098 283.567139,220.211105 276.901978,215.318481 
	C270.089569,210.317703 268.849579,199.713013 274.250397,193.251068 
	C278.036530,188.721069 282.621216,186.544861 288.958069,187.999191 
z"/>
<path fill="#54565B" opacity="1.000000" stroke="none" 
	d="
M429.700806,144.007507 
	C438.166016,145.511948 442.501526,150.949081 443.137360,158.540436 
	C443.655121,164.722504 438.199615,172.560333 432.116547,173.842834 
	C424.112213,175.530380 416.747955,171.996094 413.875732,164.508698 
	C410.072205,154.593567 417.560791,142.422836 429.700806,144.007507 
z"/>
<path fill="#54565B" opacity="1.000000" stroke="none" 
	d="
M60.599739,169.101685 
	C58.965263,158.724503 61.290318,152.915787 68.144501,149.404907 
	C74.365105,146.218552 83.226257,148.302292 87.331657,153.916855 
	C91.656456,159.831482 90.674263,169.241196 85.205231,174.288620 
	C79.946709,179.141739 71.105713,179.572037 65.640770,174.996994 
	C63.779213,173.438599 62.407681,171.294830 60.599739,169.101685 
z"/>
<path fill="#000000" opacity="1.000000" stroke="none" 
	d="
M171.898987,358.125183 
	C172.322525,358.315186 172.562027,358.700836 172.801544,359.086426 
	C172.431015,359.078979 172.060471,359.071533 171.518692,358.888306 
	C171.469940,358.582031 171.592453,358.451447 171.898987,358.125183 
z"/>
<path fill="#000000" opacity="1.000000" stroke="none" 
	d="
M400.461945,359.522888 
	C400.244415,359.983459 399.844177,360.247040 399.443909,360.510620 
	C399.455627,360.067322 399.467377,359.624054 399.696198,359.056519 
	C400.035309,359.063416 400.157288,359.194641 400.461945,359.522888 
z"/>
</svg>